<svg xmlns="http://www.w3.org/2000/svg" width="21" height="24" fill="none"><path stroke="#000" stroke-width="2" d="M11.27 8.935V4.43a2.933 2.933 0 1 0-5.866 0v4.505M19.756 10.574l-4.043 4.044a1 1 0 0 1-1.414 0l-1.456-1.456"/><path fill="#000" fill-rule="evenodd" stroke="#000" d="M7.671 17.304a.355.355 0 0 0 .003.064c.02.147.133.262.269.262h.581c.136 0 .248-.115.268-.262a.356.356 0 0 0 .003-.064l-.077-1.772c.158-.084.297-.207.407-.36a1.43 1.43 0 0 0 .26-.876c-.014-.535-.308-.99-.72-1.18a1.024 1.024 0 0 0-.864 0c-.412.19-.705.645-.72 1.18v.041c0 .317.098.608.261.835.11.153.249.276.407.36l-.078 1.772Z" clip-rule="evenodd"/><path stroke="#000" stroke-width="2" d="M15.052 16.477a6.916 6.916 0 0 1-13.733-1.152 6.914 6.914 0 0 1 12.676-3.823"/></svg>