<svg xmlns="http://www.w3.org/2000/svg" width="23" height="23" fill="none"><rect width="20" height="20" x="1.764" y="1.189" stroke="#000" stroke-width="2" rx="4"/><path fill="#000" stroke="#000" stroke-width=".3" d="M13.232 21.443c.12.121.279.176.458.176h.374a.625.625 0 0 0 .458-.176.625.625 0 0 0 .176-.458v-9.53h2.754a.625.625 0 0 0 .458-.176.625.625 0 0 0 .176-.458v-.308a.625.625 0 0 0-.176-.458.625.625 0 0 0-.458-.176h-2.754v-.994c0-.826.138-1.395.388-1.737.253-.341.716-.533 1.442-.533h1.144a.625.625 0 0 0 .458-.176.625.625 0 0 0 .176-.458v-.308a.625.625 0 0 0-.176-.458.625.625 0 0 0-.458-.176h-1.144c-1.267 0-2.19.328-2.716 1.027-.51.666-.756 1.575-.756 2.709v1.104h-1.808a.625.625 0 0 0-.458.176.625.625 0 0 0-.176.458v.308c0 .179.054.337.176.458.12.121.279.176.458.176h1.808v9.53c0 .179.055.337.176.458Z"/></svg>