<svg xmlns="http://www.w3.org/2000/svg" width="24" height="21" fill="none"><path stroke="#000" stroke-width="2" d="M11.949 10.1V3.072a2 2 0 0 1 2-2h6.715a2 2 0 0 1 2 2v5.026a2 2 0 0 1-2 2h-4.562a2 2 0 0 0-1.066.308L10.765 13.1"/><path fill="#000" d="M17.086 8.073a.207.207 0 0 1-.131-.043.168.168 0 0 1-.047-.12v-.429c0-.047.016-.085.047-.113a.188.188 0 0 1 .13-.049h.503c.052 0 .095.016.131.05a.136.136 0 0 1 .055.112v.43a.156.156 0 0 1-.055.12.207.207 0 0 1-.13.042h-.503ZM17.086 6.572a.207.207 0 0 1-.131-.042.168.168 0 0 1-.047-.12V3.62c0-.047.016-.085.047-.113a.188.188 0 0 1 .13-.05h.503c.052 0 .095.017.131.05a.136.136 0 0 1 .055.112v2.792a.156.156 0 0 1-.055.12.207.207 0 0 1-.13.041h-.503Z"/><path stroke="#000" stroke-width="2" d="M12.557 17.685c2.172.738 4.731 1.235 7.735 1.388v-2.35c0-.608-.538-1.076-1.145-1.044-.927.049-2.04.02-2.851-.226-.473-.144-1.038-.14-1.41.187l-2.329 2.045Zm0 0c-5.23-1.778-8.22-4.957-9.797-8.112m0 0c-1.193-2.386-1.576-4.759-1.507-6.5h3.165c.552 0 .999.447 1.03.999.038.7.118 1.52.268 2.167.114.494-.006 1.066-.407 1.375l-2.55 1.959Z"/></svg>