<svg xmlns="http://www.w3.org/2000/svg" width="24" height="24" fill="none"><path fill="#000" stroke="#000" stroke-width=".3" d="M19.35 12v.15H20.65V12A8.65 8.65 0 0 0 12 3.35h-.15V4.65H12A7.35 7.35 0 0 1 19.35 12Zm-14.7 0v-.15H3.35V12A8.65 8.65 0 0 0 12 20.65h.15V19.35H12A7.35 7.35 0 0 1 4.65 12Zm5.467 3.744h.002c.367.187.792.305 1.272.359v.641c0 .107.034.207.112.285a.41.41 0 0 0 .296.121h.425c.11 0 .21-.039.285-.121a.372.372 0 0 0 .122-.285v-.63c.741-.082 1.343-.308 1.794-.688l.001-.001c.483-.416.724-.966.724-1.636 0-.436-.094-.808-.294-1.105-.197-.301-.492-.543-.875-.73-.378-.19-.889-.372-1.527-.543-.541-.155-.948-.29-1.223-.404-.27-.12-.46-.253-.583-.393a.798.798 0 0 1-.166-.525c0-.332.124-.568.37-.73.257-.171.624-.265 1.114-.265.44 0 .794.099 1.07.286l.001.001c.277.18.422.401.46.663l.001.008.003.009a.423.423 0 0 0 .157.241.466.466 0 0 0 .279.081h.593a.357.357 0 0 0 .278-.114.362.362 0 0 0 .107-.258v-.008a1.887 1.887 0 0 0-.314-.916c-.186-.305-.463-.565-.821-.782-.326-.2-.71-.334-1.149-.402v-.647c0-.11-.04-.21-.122-.285a.375.375 0 0 0-.285-.121h-.425a.41.41 0 0 0-.296.121.389.389 0 0 0-.112.285v.633c-.684.09-1.24.324-1.654.712-.44.406-.663.908-.663 1.499 0 .435.09.81.28 1.113.188.3.467.546.829.741.356.193.83.37 1.417.535.595.177 1.038.323 1.33.44.287.113.49.24.619.375l.002.002c.124.124.19.287.19.505a.919.919 0 0 1-.405.8c-.277.189-.708.294-1.314.294-.558 0-.967-.108-1.245-.305-.29-.206-.458-.444-.523-.713l-.002-.007-.002-.008a.507.507 0 0 0-.158-.234.416.416 0 0 0-.264-.088h-.582a.397.397 0 0 0-.284.121.362.362 0 0 0-.112.262v.007a2 2 0 0 0 .338 1.02l.002.004c.218.312.53.571.927.78ZM21.85 12c0 5.44-4.41 9.85-9.85 9.85-5.44 0-9.85-4.41-9.85-9.85 0-5.44 4.41-9.85 9.85-9.85 5.44 0 9.85 4.41 9.85 9.85ZM12 23.15c6.158 0 11.15-4.992 11.15-11.15S18.158.85 12 .85.85 5.842.85 12 5.842 23.15 12 23.15Z"/></svg>