<svg xmlns="http://www.w3.org/2000/svg" width="14" height="20" fill="none" class="ns-disclaimer-action__icon"><path fill="#000" fill-rule="evenodd" d="M7.11 9.072c1.074 0 1.945-.881 1.945-1.968S8.184 5.136 7.11 5.136s-1.943.881-1.943 1.968.87 1.968 1.943 1.968zm0 .984c1.61 0 2.916-1.322 2.916-2.952S8.721 4.152 7.11 4.152c-1.61 0-2.916 1.322-2.916 2.952S5.5 10.056 7.11 10.056z" clip-rule="evenodd"/><path fill="#000" fill-rule="evenodd" d="m7.11 17.995 4.637-7.756a5.536 5.536 0 0 0-.804-6.72 5.372 5.372 0 0 0-7.664 0 5.534 5.534 0 0 0-.804 6.718l4.635 7.758zM2.59 2.822a6.532 6.532 0 0 0-.949 7.924l5.13 8.58a.393.393 0 0 0 .678 0l5.13-8.58a6.527 6.527 0 0 0-.95-7.924 6.339 6.339 0 0 0-9.039 0z" clip-rule="evenodd"/></svg>